<svg height='300px' width='300px'  fill="#17a2b8" xmlns="http://www.w3.org/2000/svg" xmlns:xlink="http://www.w3.org/1999/xlink" xml:space="preserve" version="1.1" style="shape-rendering:geometricPrecision;text-rendering:geometricPrecision;image-rendering:optimizeQuality;" viewBox="0 0 50000 50000" x="0px" y="0px" fill-rule="evenodd" clip-rule="evenodd"><defs><style type="text/css">
   
    .fil0 {fill:#17a2b8;fill-rule:nonzero}
   
  </style></defs><g><path class="fil0" d="M36965.37 29019.68c65.69,-69.35 168.43,-97.62 264.33,-63.8 990.02,349.19 1335.88,25.38 1917.32,-519.01 1805.17,-1690.21 3822.91,-3207.19 5659.61,-4900 540.62,-501.92 813.87,-1198.53 745.38,-1900.51 -132.67,-1359.65 -1291.88,-2016.14 -2597.5,-1835.66 -815.79,112.77 -1706.13,544.91 -2499.81,1346.49l-18776.04 18755.1c-865.79,870.94 -1434.53,1706.15 -1724.29,2446.74 -728.35,1861.56 296.92,2721.95 1952.26,1177.74l15058.74 -14507.09zm4522.81 -7631.78c-149.31,127.78 -343.87,-99.54 -194.54,-227.34 621.14,-532.64 1243.77,-790.05 1798.46,-841.24 1235.66,-114.04 2211.47,821.91 1948.5,2098.87 -39.3,192.67 -332.26,132.91 -292.96,-59.76 222.02,-1078.12 -591.86,-1837.14 -1628.58,-1741.45 -496.61,45.83 -1060.2,281.55 -1630.88,770.92zm-28614.43 19217.27c-154.71,-120.84 29.26,-356.39 183.98,-235.54 2441.86,1901.29 4213.45,1694.56 6273.58,-595.12 131.62,-146.25 354.29,54.14 222.66,200.4 -2168.34,2409.95 -4111.11,2630.65 -6680.22,630.26zm4604.5 -6160.39l1617.03 1129.05c382.72,267.15 417.95,762.62 79.42,1082.94l-2606.96 2467.02c-307.21,290.74 -838.19,360.18 -1188.71,107.9l-1566.18 -1127.17c-374.05,-269.18 -415.47,-754.64 -78.42,-1080.03l2556.12 -2468.89c305.31,-294.9 835.38,-356.8 1187.7,-110.82zm1331.87 1537.25l-1617.03 -1129.05c-157.09,-109.68 -422.75,-67.52 -556.84,62l-2556.12 2468.89c-110.51,106.7 -96.79,229.62 23.74,316.35l1566.18 1127.17c154.84,111.44 423.23,60.63 555.89,-64.92l2606.96 -2467.02c108,-102.2 99.18,-228.31 -22.78,-313.42zm-6690.23 -1726.37l1384.69 1059.41c308.34,235.85 317.83,661.57 37.81,920.27l-527.65 487.51c-257.02,237.43 -680.89,261.73 -959.81,48.34l-1384.7 -1059.43c-308.58,-236.12 -318,-661.42 -37.82,-920.27l527.66 -487.5c257.01,-237.45 680.91,-261.72 959.82,-48.33zm1019.39 1408.01l-1322.13 -1011.53c-87.64,-67.05 -239.05,-55 -319.18,19.03l-527.66 487.5c-54.54,50.43 -56.95,111 2.66,156.61l1384.7 1059.43c87.62,67.03 239.06,54.97 319.17,-19.04l484.64 -447.77c114.22,-105.54 102.85,-148.55 -22.2,-244.23zm-3923.44 -3684.5l1384.7 1059.43c308.28,235.9 317.76,661.63 37.81,920.27l-527.67 487.5c-256.97,237.45 -680.92,261.73 -959.79,48.34l-1384.71 -1059.42c-304.84,-233.26 -321.38,-658.29 -37.82,-920.27l527.67 -487.51c257.03,-237.47 680.87,-261.72 959.81,-48.34zm1042.6 1425.8l-1345.34 -1029.32c-87.64,-67.05 -239.05,-54.98 -319.17,19.04l-482.64 445.9c-117.85,92.42 -89.74,173.49 14.27,241.55l1328.07 1016.09c87.62,67.05 239.04,54.97 319.15,-19.04l478.15 -441.75c108.1,-99.87 137,-133.41 7.51,-232.47zm-3943.17 -3671.32l1425.34 1102.18c194.88,210.93 205.82,520.45 31.95,747.68 -128.19,167.53 -422.98,403.86 -588.09,556.41 -252.08,232.9 -667.55,256.64 -941.11,47.35l-1344.24 -1028.47c-294.41,-225.3 -320.31,-642.98 -37.22,-904.53l512.25 -473.27c252.08,-232.9 667.56,-256.64 941.12,-47.35zm926.95 1337.32l-1229.69 -940.84c-82.28,-62.94 -225.29,-51.42 -300.48,18.05l-443.4 409.66c-161,148.75 -135.89,151.61 17.09,268.65l1260.36 964.3c82.28,62.94 225.28,51.42 300.47,-18.05l405.45 -374.59c196.32,-181.38 200.58,-166.22 -9.8,-327.18zm7031.32 1007.25l1401.54 1036.56c268.3,198.32 328.06,557.19 127.69,828.14 -126.32,170.74 -447.94,429.31 -615.86,584.62 -258.16,238.79 -681.86,268 -965.91,57.92l-1401.55 -1036.56c-310.88,-229.96 -329.51,-656.52 -44.24,-920.34l532.4 -492.42c258.17,-238.78 681.87,-268 965.93,-57.92zm1028.43 1380.57l-1325.31 -980.17c-90.13,-66.66 -249.81,-52.46 -331.15,22.76l-481.87 445.68c-131.26,121.41 -126.22,143.08 12.48,245.66l1341.76 992.34c90.13,66.66 249.79,52.46 331.13,-22.76l482.23 -446.01c120.6,-111.54 105.56,-157.78 -29.27,-257.5zm-3955.32 -3609.51l1401.55 1036.56c313.43,231.85 327.89,658.05 44.24,920.35l-532.41 492.41c-258.16,238.79 -681.86,268 -965.91,57.92l-1401.55 -1036.56c-311.21,-230.21 -329.8,-656.27 -44.24,-920.34l532.4 -492.42c129.8,-120.04 301.57,-186.73 473.67,-197.43 172.79,-10.74 350.79,34.9 492.25,139.51zm1027.21 1379.67l-1324.09 -979.27c-90.12,-66.63 -226.64,-70.88 -307.96,4.34l-485.99 446.47c-102.12,108.65 -142.92,161.19 22.04,284.46l1313.14 971.17c90.13,66.66 249.79,52.46 331.13,-22.76l443.37 -410.06c121.97,-123.39 137.71,-196.58 8.36,-294.35zm-3950.5 -3577.83l1360.58 1006.27c305.35,225.76 323.69,645.69 43.55,904.64l-516.84 478.02c-253.2,234.2 -668.37,262.77 -946.96,56.74l-1360.6 -1006.26c-305.81,-226.08 -324.05,-645.27 -43.54,-904.65l516.84 -478.02c253.22,-234.2 668.37,-262.78 946.97,-56.74zm924.58 1303.76l-1221.46 -903.36c-84.66,-62.61 -235.81,-49.06 -312.19,21.58l-420.54 388.95c-138.51,128.12 -98.17,224.83 53.07,336.68l1213.75 897.66c84.65,62.6 235.82,49.06 312.18,-21.58l403.27 -372.97c118.41,-109.53 107.15,-250.85 -28.08,-346.96zm10411.06 3127.5l1743.56 1155.19c382.85,253.75 411.21,744.24 83.13,1057.57l-670.41 640.53c-296.26,283.09 -801.6,337.86 -1145.28,110.16l-1743.57 -1155.18c-379.03,-251.22 -413.96,-741.53 -83.11,-1057.59l670.4 -640.53c296.27,-283.07 801.61,-337.84 1145.28,-110.15zm1468.16 1571.21l-1743.56 -1155.19c-150.95,-100.02 -396.96,-67.95 -526.12,55.45l-670.4 640.53c-96.42,92.09 -97.37,205.97 14.75,280.25l1743.57 1155.18c150.96,100.02 396.97,67.96 526.12,-55.46l670.41 -640.53c92.55,-88.4 101.43,-203.24 -14.77,-280.23zm-4795.87 -3744.76l1400.53 980.03c326.32,228.25 343.11,657.18 60.11,923.34l-535.4 503.62c-256.91,241.67 -683.13,279.16 -973.6,75.89l-1400.53 -980.04c-320.67,-224.46 -347.58,-652.97 -60.11,-923.33l535.41 -503.62c256.91,-241.67 683.12,-279.16 973.59,-75.89zm993.01 1302.61l-1278.17 -894.41c-95.29,-66.7 -262.86,-47.83 -346.63,30.97l-491.7 462.5c-91.65,91.89 -105.23,156.09 25.01,238.63l1335.28 934.38c95.29,66.7 262.87,47.83 346.64,-30.97l438.37 -412.35c144.61,-122.29 139.78,-196.78 -28.8,-328.75zm-3942.69 -3484.02l1400.53 980.03c323.11,226.12 345.11,655.31 60.11,923.34l-535.41 503.62c-256.93,241.67 -683.12,279.16 -973.61,75.89l-1400.52 -980.03c-320.81,-224.39 -347.41,-652.95 -60.1,-923.33l535.4 -503.63c256.93,-241.67 683.11,-279.15 973.6,-75.89zm1079.68 1363.26l-1364.84 -955.06c-95.31,-66.68 -262.85,-47.84 -346.64,30.97l-448.99 422.35c-158.16,148.77 -75.15,233.58 100.66,356.62l1216.91 856.54c95.3,66.69 262.87,47.84 346.65,-30.97l505.63 -475.61c93.86,-92.02 79.44,-144.16 -9.38,-204.84zm-4025.93 -3514.37l1359.6 951.4c317.47,222.19 339.25,644.22 59.19,907.63l-519.77 488.91c-251.98,236.97 -669.44,273.65 -954.3,74.32l-1359.62 -951.4c-317.45,-222.2 -339.24,-644.21 -59.17,-907.62l519.77 -488.9c251.92,-237.02 669.47,-273.64 954.3,-74.34zm1003.11 1309.69l-1288.27 -901.49c-89.65,-62.73 -248.54,-44.72 -327.34,29.42l-478.19 449.79c-111.99,105.34 -111.55,124.52 12.67,211.44l1307.9 915.21c89.66,62.74 248.52,44.72 327.34,-29.4l438.82 -412.76c145.37,-136.75 133.8,-170.38 7.07,-262.21zm10507.2 2900.95l1743.55 1155.18c383.01,253.7 411.06,744.17 83.13,1057.58l-670.41 640.53c-296.29,283.07 -801.58,337.85 -1145.28,110.15l-1743.56 -1155.18c-379.11,-251.12 -413.85,-741.57 -83.12,-1057.59l670.41 -640.53c296.3,-283.09 801.57,-337.82 1145.28,-110.14zm1412.26 1534.17l-1687.66 -1118.15c-150.98,-100.02 -396.94,-67.98 -526.12,55.44l-670.41 640.53c-94.78,90.58 -99.21,204.74 14.76,280.25l1743.56 1155.18c150.97,100.03 396.94,67.95 526.12,-55.45l621.95 -594.23c164.37,-157.05 133.42,-254.44 -22.2,-363.57zm-4866.77 -3593.89l1400.53 980.04c325.39,227.6 342.32,657.77 60.11,923.34l-535.41 503.62c-256.89,241.68 -683.14,279.15 -973.59,75.88l-1400.53 -980.02c-320.24,-224.11 -347.75,-652.82 -60.11,-923.34l535.4 -503.62c256.93,-241.67 683.11,-279.16 973.6,-75.9zm1083.9 1366.22l-1369.06 -958.02c-95.3,-66.68 -262.87,-47.82 -346.64,30.98l-535.4 503.62c-52.91,49.75 -60.04,107.43 3.47,151.86l1400.53 980.02c95.3,66.69 262.85,47.84 346.63,-30.96l503.04 -473.18c93.55,-87.98 110.45,-125.24 -2.57,-204.32zm-4056.42 -3500.08l1400.51 980.03c323.49,226.27 345.32,655.11 60.12,923.34l-535.41 503.62c-256.92,241.68 -683.12,279.15 -973.6,75.89l-1400.52 -980.03c-320.67,-224.41 -347.54,-653.01 -60.12,-923.33l535.41 -503.62c256.94,-241.68 683.11,-279.16 973.61,-75.9zm1115.35 1388.23l-1400.51 -980.03c-95.3,-66.69 -262.87,-47.83 -346.65,30.98l-535.41 503.62c-52.9,49.75 -60.03,107.42 3.48,151.85l1400.52 980.03c95.3,66.69 262.86,47.84 346.64,-30.97l535.41 -503.62c52.89,-49.75 60.08,-107.45 -3.48,-151.86zm-4084.43 -3491.78l1458.32 1035.95c228.98,243.43 196.59,600.98 -39.53,823.06l-519.76 488.91c-251.93,237.01 -669.47,273.64 -954.3,74.33l-1359.61 -951.4c-315.13,-220.44 -341.57,-642.03 -59.18,-907.62l519.76 -488.91c251.96,-237 669.45,-273.65 954.3,-74.32zm1074.45 1359.59l-1359.61 -951.39c-89.67,-62.74 -248.52,-44.74 -327.34,29.4l-519.76 488.91c-47.92,45.08 -55.31,95.68 2.54,136.14l1359.61 951.4c89.66,62.73 248.53,44.72 327.34,-29.41l519.76 -488.91c47.88,-45.04 55.33,-95.72 -2.54,-136.14zm10900.74 2481.38l1124.31 727.92c1057.74,684.69 -146.19,2142.68 -1183.7,1471l-1124.31 -727.92c-1047.69,-678.27 149.41,-2140.53 1183.7,-1471zm852.83 1145.88l-1124.31 -727.92c-475.8,-308.01 -1131.9,316.86 -640.74,635.08l1124.31 727.92c484.54,313.69 1126.56,-320.32 640.74,-635.08zm-4024.29 -3218.13l1124.31 727.92c1053.66,682.22 -137.32,2148.47 -1183.7,1471l-1124.32 -727.92c-1047.68,-678.18 148.3,-2141.31 1183.71,-1471zm852.83 1145.88l-1124.31 -727.92c-475.76,-308 -1131.93,316.85 -640.75,635.08l1124.32 727.92c465.15,301.17 1139.36,-312.02 640.74,-635.08zm-4016.98 -3205.44l1124.32 727.91c1050.78,680.46 -160.17,2133.63 -1183.71,1471l-1124.32 -727.92c-1047.68,-678.18 148.31,-2141.35 1183.71,-1470.99zm852.84 1145.87l-1124.32 -727.91c-481.89,-312.01 -1123.95,322.01 -640.75,635.07l1124.32 727.92c484.73,313.81 1126.51,-320.65 640.75,-635.08zm-3981.69 -3217.41l1124.31 727.93c1045.73,676.82 -134.07,2150.55 -1183.7,1470.98l-1124.31 -727.91c-1056.19,-683.87 167.11,-2129.13 1183.7,-1471zm852.83 1145.89l-1124.31 -727.93c-471.81,-305.44 -1130.38,318.13 -640.74,635.08l1124.31 727.91c484.78,313.89 1126.5,-320.71 640.74,-635.06zm25521.91 -5983.97c603.29,174.82 946.37,477.6 1261.08,755.34 544.38,480.45 997.29,756.39 1685.29,360.46 869.1,-500.17 1276.98,-1300.02 2382.16,-1478.87 496.63,-80.38 1011.2,21.57 1362.47,399.8 -104.93,-307.47 -262.63,-585.57 -460.7,-840.82 -835.35,-1076.49 -2565.56,-1915.6 -3835.11,-2608.49 -238.33,-130.07 -193.8,-113.5 -462.96,-35.66 -1075.65,311.16 -2076.81,994.07 -2747.44,3060.77 286.83,155.44 500.37,296.26 815.21,387.47zm6773 1593.94c57.5,-454.3 7.61,-812.04 -117.92,-1078.67 -240.01,-509.8 -751.37,-668.53 -1279.67,-583.02 -989.53,160.14 -1464.37,972.99 -2280.22,1442.53 -814.47,468.73 -1382.42,177.8 -2032.15,-395.62 -237.63,-209.71 -409.65,-407.52 -796.21,-560.84 -179.82,-71.32 -157.74,-69.84 -289.57,27.58 -75.22,55.58 -178.76,66.38 -266.61,19.14 -4639.39,-2514.2 -9277.35,-5031.49 -13916.88,-7545.79 -289.01,-155.4 -52.73,-594.88 236.32,-439.46l684.13 370.75c231.32,-847.53 520.16,-1472.29 850.63,-1934.48 -2086.75,461.78 -3980.66,1705.55 -5510.72,3163.41 871.68,-217.58 1695.29,239.52 2434.01,651.53l11743.02 6549.37c1496.69,834.74 1223.13,1984.62 206.41,2972.32l-9842.59 9561.69c-3276.44,3182.83 -6553.28,6366.25 -9829.8,9549.25 -1554.72,1446.48 -2951.18,1678.96 -4693.75,315.07l-9876.38 -7730.64c-612.48,-479.37 -947.28,-1124.93 -734.21,-1924.16 62.01,-217.64 72.33,-232.18 -104.63,-42.26 -1567.48,1682.28 -1733.6,3161.9 24.19,4790.74l11357.67 9084.96c809.18,647.26 1734.64,1301.44 2819.54,1249.58 780.17,-37.29 1521.66,-457.97 2260.73,-1248.79 -198.02,-552.94 -157.53,-1229.48 136.16,-1980.1 313.34,-800.87 919.25,-1694.87 1835.7,-2616.75l18776.58 -18755.64c875.33,-883.79 1868.08,-1361.78 2784.34,-1488.44 1523.33,-210.58 2919.16,563.94 3133.79,2137.87 839.86,-932.43 2007.45,-2025.96 2288.09,-3561.13zm-19608.27 -8499.27l11574.25 6272.82c1008.72,-3022.76 2676.9,-3288.9 4307.24,-3548.86 1131.05,-180.34 2242.09,-357.52 3031.74,-1611.96 259.07,-393.67 165.58,-353.11 -304.32,-572.97l-10590.48 -4954.92c-585.54,-273.96 -722.52,-479.53 -1074.74,16.36 -885.79,1236.98 -2053.12,1293.28 -3227.67,1349.9 -1471.74,70.95 -2956.13,143 -3716.02,3049.63zm958.23 -2785.44c807.38,-668.97 1773.24,-715.9 2734.35,-762.23 1052.69,-50.75 2098.92,-101.2 2844.85,-1142.88 563.54,-866.91 742.69,-620.66 1691.94,-176.52l10590.48 4954.92c777.26,363.68 1059.61,425.01 515.26,1289.77 -844.01,1340.79 -1884.73,1591.58 -3282.57,1822.91 -305.59,50.57 -276.66,22.35 -7.82,169.08 1185.94,647.25 2590.71,1364.22 3415.39,2426.95 1754.99,2261.57 -25.25,4752.82 -1655.72,6471.76 -175.64,185.18 -287.25,345 -364.58,490.87 -377.13,711.52 -115.33,950.03 -995.04,1760.83 -1835.7,1691.9 -3854.41,3207.89 -5657.67,4896.1 -692.05,647.95 -1114.92,1043.57 -2276.31,675.56l-15014.08 14436.3c-724.45,675.82 -1619.49,1261.46 -2605.42,708.45 -790.41,803.37 -1603.01,1232.18 -2474.97,1273.86 -1199.86,57.35 -2209.69,-603.98 -3106.01,-1320.93l-11434.47 -9146.4c-1989.53,-1843.6 -1882.69,-3738.74 20.78,-5564.9 6883.92,-6603.24 13753.19,-13223.34 20628.93,-19835.44 1760.45,-1682.99 3984.11,-3083.94 6432.68,-3428.06zm-16648.47 14025.61c-80.76,113.87 -145.31,226.21 -194.68,336.71 -361.41,808.8 107.13,1471.75 769.9,1907.86l10534.78 6932.2c598.44,393.82 1346.96,819.91 2059.21,889.59 805.01,78.75 1206.29,-280.27 1731.58,-790.57l9852.05 -9570.8c906.05,-880.21 1137.17,-1785.17 -143.59,-2499.4l-11741.69 -6548.55c-1443.39,-804.96 -2155.1,-1040.31 -3392.42,149.56l-9475.14 9193.4zm13819.79 10325.94c-218.48,49.62 -444.37,61.01 -678.7,38.08 -781.54,-76.47 -1566.06,-523.69 -2220.04,-954.03l-10519.47 -6922.12c-599.28,-394.34 -1098.01,-997.38 -1012.01,-1758.98 35.89,-318.15 120.23,-339.08 -181.92,-48.52l-7582.27 7291.52c-538.89,518.23 -1149.67,1043.56 -1349.57,1793.35 -177.27,664.93 108.98,1205.62 625.38,1609.83l9856.06 7714.72c1639.36,1283.11 2925.57,1048.47 4329.54,-280.14l8733 -8483.71zm-9542.18 -12402.17l6155.75 -5848.78c1061.92,-1008.97 1459.15,-868.07 2605.18,-220.9l10356.06 5847.93c1140.71,644.16 1181.16,1140.42 214.18,2083.81l-6823.65 6657.19c-1026.28,1012.3 -1164.84,825.74 -2304.56,142.84l-9997.29 -6414.02c-1162.64,-745.84 -1201.87,-1301.56 -205.67,-2248.07zm478.03 1829.96l9994.47 6412.21c789.74,483 939.23,657.79 1689.1,-82.01l6798.02 -6632.22c720.68,-703.06 775,-829.45 -96.89,-1321.81l-10357.81 -5848.91c-950.21,-536.6 -1133.94,-675.22 -2026.28,172.94l-6130.08 5826.57c-761.17,723.5 -761.5,901.66 129.47,1473.23z"></path></g></svg>